<?xml version="1.0" encoding="iso-8859-1"?>
<!-- Generator: Adobe Illustrator 19.0.0, SVG Export Plug-In . SVG Version: 6.00 Build 0)  -->
<svg version="1.0" xmlns="http://www.w3.org/2000/svg" xmlns:xlink="http://www.w3.org/1999/xlink" x="0px" y="0px"
	 viewBox="0 0 32 32" style="enable-background:new 0 0 32 32;" xml:space="preserve">
<g id="Rectangle_1_1_" style="enable-background:new    ;">
	<g id="Rectangle_1">
		<g>
			<path style="fill-rule:evenodd;clip-rule:evenodd;fill:#5AB5FF;" d="M30.929,0H1.071C0.48,0,0,0.481,0,1.074v29.852
				C0,31.519,0.48,32,1.071,32h29.857C31.52,32,32,31.519,32,30.926V1.074C32,0.481,31.52,0,30.929,0z"/>
		</g>
	</g>
</g>
<g id="Ellipse_2_1_" style="enable-background:new    ;">
	<g id="Ellipse_2_2_">
		<g>
			<path d="M25.278,8.254c0-1.762-6.889-2.514-9.982-2.443c-0.814,0.048-1.628,0.096-2.442,0.144
				C10.48,6.332,6.894,7.103,6.894,8.326c0,1.803,0.93,2.324,6.822,10.491c0.694,0.961,0.133,6.914,0.287,7.114
				c0.101,0.136,0.251,0.467,1.005,0c0.754-0.467,2.598-1.715,3.232-2.946c0.358-0.695-0.212-3.578,0.575-4.886
				C24.535,10.101,25.278,9.502,25.278,8.254z M16.23,10.122c-3.444,0-7.303-0.998-7.325-1.653c-0.022-0.654,4.763-1.15,7.684-1.15
				c3.378,0,6.772,0.776,6.75,1.365C23.318,9.274,19.782,10.122,16.23,10.122z"/>
		</g>
	</g>
</g>
</svg>
