<?xml version="1.0" encoding="iso-8859-1"?>
<!-- Generator: Adobe Illustrator 19.0.0, SVG Export Plug-In . SVG Version: 6.00 Build 0)  -->
<svg version="1.0" xmlns="http://www.w3.org/2000/svg" xmlns:xlink="http://www.w3.org/1999/xlink" x="0px" y="0px"
	 viewBox="0 0 64 64" style="enable-background:new 0 0 64 64;" xml:space="preserve">
<g id="Rectangle_1_1_" style="enable-background:new    ;">
	<g id="Rectangle_1">
		<g>
			<path style="fill-rule:evenodd;clip-rule:evenodd;fill:#5AB5FF;" d="M61.857,0.04H2.143C0.959,0.04,0,1.001,0,2.186v59.667
				C0,63.039,0.959,64,2.143,64h59.714C63.041,64,64,63.039,64,61.854V2.186C64,1.001,63.041,0.04,61.857,0.04z"/>
		</g>
	</g>
</g>
<g id="Ellipse_2_1_" style="enable-background:new    ;">
	<g id="Ellipse_2_2_">
		<g>
			<path d="M50.557,16.537c0-3.522-13.778-5.025-19.964-4.883c-1.628,0.096-3.256,0.191-4.883,0.287
				c-4.749,0.756-11.921,2.297-11.921,4.74c0,3.604,1.859,4.645,13.645,20.969c1.387,1.921,0.266,13.82,0.574,14.219
				c0.201,0.273,0.503,0.934,2.011,0c1.508-0.934,5.195-3.427,6.463-5.889c0.715-1.388-0.424-7.151,1.149-9.767
				C49.071,20.229,50.557,19.032,50.557,16.537z M32.46,20.271c-6.887,0-14.606-1.996-14.65-3.303
				c-0.044-1.308,9.527-2.298,15.368-2.298c6.756,0,13.544,1.552,13.501,2.729S39.565,20.271,32.46,20.271z"/>
		</g>
	</g>
</g>
</svg>
